{"title":"The Coroner S01E03 - Thats the Way to do it x264 RB58.mp4","uid":12787590,"size":499874880,"categoryP":"video","categoryS":"tv_shows","magnet":"?xt=urn:btih:ae441b1eb672ff292bc862589db69d214f08fd13&amp;dn=The+Coroner+S01E03+-+Thats+the+Way+to+do+it+x264+RB58.mp4&amp;tr=udp%3A%2F%2Ftracker.leechers-paradise.org%3A6969&amp;tr=udp%3A%2F%2Fzer0day.ch%3A1337&amp;tr=udp%3A%2F%2Fopen.demonii.com%3A1337&amp;tr=udp%3A%2F%2Ftracker.coppersurfer.tk%3A6969&amp;tr=udp%3A%2F%2Fexodus.desync.com%3A6969","seeders":0,"leechers":1,"uploader":"RedBaron58","files":1,"time":1447881001,"description":"The Coroner (2015) S01E03 - That's the Way to Do It x264 mp4\r\n \nhttp://www.imdb.com/title/tt5194866/\r\n\r\nNo Trailer at Present\r\n\r\n\r\nPlease be patient My intial upload speed is limited.\r\nThank you for your kind comments and feedback on my other torrents, your feedback is welcome.\r\n\r\n\r\nAbout the Episode:\r\nAfter the new mayor, Una Drake, launches an initiative to clean up the town of Lighthaven, she forcibly \r\ncloses the Punch and Judy stall. Later, the man behind the stall is found dead on the beach, and when \r\nJane meets with Una, she finds her rude and abrupt. \r\nHowever, in the small hours, Davey and Jane are called to the scene of a second death, the mayor has \r\nbeen found beaten in a hotel room. The pair search for a link between the two deaths, and Jane's quest \r\nfor the truth puts her life in danger. \r\n \r\nStarring Claire Goose and Matt Bardock\r\n\r\n\r\nI hope you enjoy.\r\n\r\n\r\nTechnical:\r\n\r\nGeneral\r\nComplete name                            : H:The Coroner S01E03 - Thats the Way to do it x264 RB58.mp4\r\nFormat                                   : MPEG-4\r\nFormat profile                           : Base Media\r\nCodec ID                                 : isom\r\nFile size                                : 477 MiB\r\nDuration                                 : 43mn 43s\r\nOverall bit rate                         : 1 524 Kbps\r\nWriting application                      : Lavf54.63.104\r\n\r\nVideo\r\nID                                       : 1\r\nFormat                                   : AVC\r\nFormat/Info                              : Advanced Video Codec\r\nFormat profile                           :   \r\nFormat settings, CABAC                   : Yes\r\nFormat settings, ReFrames                : 4 frames\r\nCodec ID                                 : avc1\r\nCodec ID/Info                            : Advanced Video Coding\r\nDuration                                 : 43mn 43s\r\nBit rate                                 : 1 400 Kbps\r\nWidth                                    : 832 pixels\r\nHeight                                   : 468 pixels\r\nDisplay aspect ratio                     : 16:9\r\nFrame rate mode                          : Constant\r\nFrame rate                               : 25.000 fps\r\nColor space                              : YUV\r\nChroma subsampling                       : 4:2:0\r\nBit depth                                : 8 bits\r\nScan type                                : Progressive\r\nBits/(Pixel*Frame)                       : 0.144\r\nStream size                              : 438 MiB (92%)\r\nWriting library                          : x264 core 123 r2189 35cf912\r\nEncoding settings                        : cabac=1 / ref=3 / deblock=1:0:0\r\n\r\nAudio\r\nID                                       : 2\r\nFormat                                   : AAC\r\nFormat/Info                              : Advanced Audio Codec\r\nFormat profile                           : LC\r\nCodec ID                                 : 40\r\nDuration                                 : 43mn 43s\r\nBit rate mode                            : Constant\r\nBit rate                                 : 116 Kbps\r\nChannel(s)                               : 2 channels\r\nChannel positions                        : Front: L R\r\nSampling rate                            : 48.0 KHz\r\nCompression mode                         : Lossy\r\nStream size                              : 36.3 MiB (8%)","torrent":{"xt":"urn:btih:ae441b1eb672ff292bc862589db69d214f08fd13","amp;dn":"The+Coroner+S01E03+-+Thats+the+Way+to+do+it+x264+RB58.mp4","amp;tr":["udp%3A%2F%2Ftracker.leechers-paradise.org%3A6969","udp%3A%2F%2Fzer0day.ch%3A1337","udp%3A%2F%2Fopen.demonii.com%3A1337","udp%3A%2F%2Ftracker.coppersurfer.tk%3A6969","udp%3A%2F%2Fexodus.desync.com%3A6969"],"infoHash":"ae441b1eb672ff292bc862589db69d214f08fd13","infoHashBuffer":{"type":"Buffer","data":[174,68,27,30,182,114,255,41,43,200,98,88,157,182,157,33,79,8,253,19]},"announce":[],"urlList":[]}}